<?xml version="1.0" encoding="UTF-8" ?>
<svg version="1.1" width="512" height="512" xmlns="http://www.w3.org/2000/svg" shape-rendering="crispEdges">
<rect x="387" y="0" width="49" height="9" fill="#2B2621" />
<rect x="373" y="9" width="36" height="9" fill="#2B2621" />
<rect x="409" y="9" width="14" height="5" fill="#817F80" />
<rect x="423" y="9" width="27" height="27" fill="#2B2621" />
<rect x="409" y="14" width="5" height="13" fill="#90908F" />
<rect x="414" y="14" width="4" height="18" fill="#817F80" />
<rect x="418" y="14" width="5" height="4" fill="#90908F" />
<rect x="369" y="18" width="18" height="9" fill="#2B2621" />
<rect x="387" y="18" width="9" height="5" fill="#817F80" />
<rect x="396" y="18" width="4" height="18" fill="#2B2621" />
<rect x="400" y="18" width="5" height="5" fill="#90908F" />
<rect x="405" y="18" width="4" height="14" fill="#817F80" />
<rect x="418" y="18" width="5" height="77" fill="#2B2621" />
<rect x="450" y="18" width="9" height="50" fill="#2B2621" />
<rect x="67" y="22" width="135" height="22" fill="#020201" />
<rect x="387" y="23" width="4" height="4" fill="#90908F" />
<rect x="391" y="23" width="5" height="9" fill="#817F80" />
<rect x="400" y="23" width="5" height="4" fill="#2B2621" />
<rect x="306" y="27" width="31" height="23" fill="#2B2621" />
<rect x="360" y="27" width="22" height="23" fill="#2B2621" />
<rect x="382" y="27" width="9" height="5" fill="#817F80" />
<rect x="400" y="27" width="5" height="5" fill="#90908F" />
<rect x="409" y="27" width="5" height="5" fill="#817F80" />
<rect x="382" y="32" width="5" height="4" fill="#90908F" />
<rect x="387" y="32" width="9" height="36" fill="#2B2621" />
<rect x="400" y="32" width="18" height="22" fill="#2B2621" />
<rect x="459" y="32" width="4" height="22" fill="#2B2621" />
<rect x="58" y="36" width="9" height="130" fill="#020201" />
<rect x="202" y="36" width="5" height="26" fill="#020201" />
<rect x="297" y="36" width="9" height="59" fill="#2B2621" />
<rect x="337" y="36" width="9" height="59" fill="#2B2621" />
<rect x="382" y="36" width="5" height="32" fill="#2B2621" />
<rect x="396" y="36" width="4" height="14" fill="#817F80" />
<rect x="423" y="36" width="13" height="18" fill="#2B2621" />
<rect x="436" y="36" width="9" height="5" fill="#817F80" />
<rect x="445" y="36" width="5" height="32" fill="#2B2621" />
<rect x="436" y="41" width="5" height="4" fill="#90908F" />
<rect x="441" y="41" width="4" height="9" fill="#817F80" />
<rect x="67" y="44" width="9" height="9" fill="#020201" />
<rect x="76" y="44" width="117" height="9" fill="#FBCB2B" />
<rect x="193" y="44" width="9" height="9" fill="#020201" />
<rect x="54" y="45" width="4" height="121" fill="#020201" />
<rect x="207" y="45" width="9" height="36" fill="#020201" />
<rect x="436" y="45" width="5" height="5" fill="#817F80" />
<rect x="292" y="50" width="5" height="45" fill="#2B2621" />
<rect x="306" y="50" width="4" height="9" fill="#2B2621" />
<rect x="310" y="50" width="5" height="4" fill="#90908F" />
<rect x="315" y="50" width="4" height="4" fill="#817F80" />
<rect x="319" y="50" width="18" height="9" fill="#2B2621" />
<rect x="346" y="50" width="5" height="45" fill="#2B2621" />
<rect x="369" y="50" width="13" height="4" fill="#2B2621" />
<rect x="396" y="50" width="4" height="94" fill="#2B2621" />
<rect x="436" y="50" width="9" height="45" fill="#2B2621" />
<rect x="67" y="53" width="4" height="1" fill="#020201" />
<rect x="71" y="53" width="131" height="50" fill="#F3B202" />
<rect x="216" y="54" width="9" height="36" fill="#020201" />
<rect x="283" y="54" width="5" height="41" fill="#2B2621" />
<rect x="310" y="54" width="9" height="77" fill="#2B2621" />
<rect x="400" y="54" width="5" height="14" fill="#817F80" />
<rect x="405" y="54" width="4" height="5" fill="#90908F" />
<rect x="409" y="54" width="9" height="45" fill="#2B2621" />
<rect x="423" y="54" width="13" height="9" fill="#817F80" />
<rect x="67" y="58" width="4" height="99" fill="#FBCB2B" />
<rect x="288" y="59" width="4" height="36" fill="#2B2621" />
<rect x="306" y="59" width="4" height="4" fill="#90908F" />
<rect x="319" y="59" width="14" height="36" fill="#2B2621" />
<rect x="333" y="59" width="4" height="9" fill="#817F80" />
<rect x="351" y="59" width="9" height="36" fill="#2B2621" />
<rect x="405" y="59" width="4" height="9" fill="#817F80" />
<rect x="202" y="62" width="4" height="41" fill="#F3B202" />
<rect x="206" y="62" width="1" height="1" fill="#020201" />
<rect x="306" y="63" width="4" height="5" fill="#817F80" />
<rect x="423" y="63" width="4" height="5" fill="#817F80" />
<rect x="427" y="63" width="5" height="5" fill="#90908F" />
<rect x="432" y="63" width="4" height="5" fill="#817F80" />
<rect x="306" y="68" width="4" height="27" fill="#2B2621" />
<rect x="333" y="68" width="4" height="45" fill="#2B2621" />
<rect x="400" y="68" width="9" height="76" fill="#2B2621" />
<rect x="423" y="68" width="13" height="27" fill="#2B2621" />
<rect x="225" y="72" width="58" height="5" fill="#020201" />
<rect x="360" y="72" width="36" height="5" fill="#020201" />
<rect x="445" y="72" width="22" height="5" fill="#020201" />
<rect x="225" y="77" width="49" height="13" fill="#020201" />
<rect x="274" y="77" width="9" height="9" fill="#2B2621" />
<rect x="360" y="77" width="36" height="18" fill="#2B2621" />
<rect x="445" y="77" width="9" height="22" fill="#2B2621" />
<rect x="454" y="77" width="13" height="4" fill="#020201" />
<rect x="454" y="81" width="5" height="18" fill="#2B2621" />
<rect x="459" y="81" width="17" height="5" fill="#020201" />
<rect x="206" y="85" width="9" height="18" fill="#F3B202" />
<rect x="274" y="86" width="5" height="4" fill="#020201" />
<rect x="279" y="86" width="4" height="4" fill="#2B2621" />
<rect x="459" y="86" width="4" height="9" fill="#2B2621" />
<rect x="463" y="86" width="13" height="13" fill="#020201" />
<rect x="476" y="90" width="4" height="166" fill="#020201" />
<rect x="215" y="94" width="68" height="9" fill="#F3B202" />
<rect x="283" y="95" width="27" height="8" fill="#F3B202" />
<rect x="319" y="95" width="5" height="18" fill="#2B2621" />
<rect x="324" y="95" width="4" height="9" fill="#90908F" />
<rect x="328" y="95" width="5" height="4" fill="#2B2621" />
<rect x="337" y="95" width="5" height="4" fill="#2B2621" />
<rect x="342" y="95" width="36" height="8" fill="#F3B202" />
<rect x="378" y="95" width="18" height="49" fill="#2B2621" />
<rect x="418" y="95" width="27" height="8" fill="#F3B202" />
<rect x="459" y="98" width="3" height="153" fill="#D48F06" />
<rect x="328" y="99" width="5" height="5" fill="#817F80" />
<rect x="337" y="99" width="5" height="4" fill="#F3B202" />
<rect x="409" y="99" width="5" height="14" fill="#2B2621" />
<rect x="414" y="99" width="4" height="4" fill="#F3B202" />
<rect x="445" y="99" width="12" height="4" fill="#F3B202" />
<rect x="458" y="99" width="1" height="152" fill="#D48F06" />
<rect x="467" y="99" width="9" height="153" fill="#020201" />
<rect x="71" y="103" width="18" height="18" fill="#F3B202" />
<rect x="90" y="103" width="220" height="1" fill="#020201" />
<rect x="337" y="103" width="41" height="1" fill="#020201" />
<rect x="414" y="103" width="39" height="1" fill="#020201" />
<rect x="453" y="103" width="4" height="9" fill="#F3B202" />
<rect x="90" y="104" width="202" height="3" fill="#020201" />
<rect x="292" y="104" width="18" height="9" fill="#2B2621" />
<rect x="324" y="104" width="9" height="27" fill="#2B2621" />
<rect x="337" y="104" width="41" height="9" fill="#2B2621" />
<rect x="414" y="104" width="13" height="9" fill="#2B2621" />
<rect x="427" y="104" width="26" height="3" fill="#020201" />
<rect x="90" y="107" width="8" height="14" fill="#020201" />
<rect x="98" y="107" width="194" height="14" fill="#F7F7F6" />
<rect x="427" y="107" width="21" height="14" fill="#F7F7F6" />
<rect x="448" y="107" width="5" height="1" fill="#020201" />
<rect x="449" y="108" width="4" height="13" fill="#020201" />
<rect x="457" y="108" width="1" height="345" fill="#020201" />
<rect x="462" y="108" width="1" height="346" fill="#020201" />
<rect x="453" y="112" width="4" height="9" fill="#020201" />
<rect x="292" y="113" width="8" height="8" fill="#F7F7F6" />
<rect x="306" y="113" width="4" height="9" fill="#2B2621" />
<rect x="319" y="113" width="5" height="4" fill="#817F80" />
<rect x="333" y="113" width="30" height="3" fill="#F7F7F6" />
<rect x="369" y="113" width="9" height="9" fill="#2B2621" />
<rect x="409" y="113" width="18" height="8" fill="#F7F7F6" />
<rect x="300" y="116" width="6" height="9" fill="#BFC1C0" />
<rect x="333" y="116" width="25" height="9" fill="#F7F7F6" />
<rect x="89" y="117" width="1" height="4" fill="#020201" />
<rect x="319" y="117" width="5" height="5" fill="#90908F" />
<rect x="364" y="117" width="5" height="5" fill="#2B2621" />
<rect x="71" y="121" width="9" height="9" fill="#F3B202" />
<rect x="81" y="121" width="8" height="4" fill="#020201" />
<rect x="89" y="121" width="211" height="4" fill="#BFC1C0" />
<rect x="409" y="121" width="43" height="4" fill="#BFC1C0" />
<rect x="454" y="121" width="3" height="332" fill="#020201" />
<rect x="306" y="122" width="3" height="3" fill="#BFC1C0" />
<rect x="319" y="122" width="5" height="9" fill="#2B2621" />
<rect x="360" y="122" width="4" height="22" fill="#2B2621" />
<rect x="369" y="122" width="4" height="4" fill="#817F80" />
<rect x="373" y="122" width="5" height="22" fill="#2B2621" />
<rect x="81" y="125" width="4" height="1" fill="#020201" />
<rect x="85" y="125" width="166" height="14" fill="#F7F7F6" />
<rect x="435" y="125" width="13" height="14" fill="#F7F7F6" />
<rect x="448" y="125" width="4" height="323" fill="#BFC1C0" />
<rect x="80" y="126" width="1" height="22" fill="#020201" />
<rect x="252" y="126" width="58" height="13" fill="#020201" />
<rect x="333" y="126" width="27" height="5" fill="#020201" />
<rect x="364" y="126" width="9" height="5" fill="#90908F" />
<rect x="409" y="126" width="26" height="5" fill="#020201" />
<rect x="71" y="130" width="5" height="27" fill="#FBCB2B" />
<rect x="76" y="130" width="4" height="36" fill="#020201" />
<rect x="310" y="131" width="23" height="8" fill="#020201" />
<rect x="333" y="131" width="27" height="13" fill="#2B2621" />
<rect x="364" y="131" width="5" height="13" fill="#2B2621" />
<rect x="369" y="131" width="4" height="4" fill="#817F80" />
<rect x="409" y="131" width="5" height="13" fill="#2B2621" />
<rect x="414" y="131" width="21" height="4" fill="#020201" />
<rect x="369" y="135" width="4" height="9" fill="#2B2621" />
<rect x="414" y="135" width="4" height="9" fill="#2B2621" />
<rect x="418" y="135" width="17" height="4" fill="#020201" />
<rect x="85" y="139" width="161" height="9" fill="#F7F7F6" />
<rect x="246" y="139" width="5" height="9" fill="#020201" />
<rect x="251" y="139" width="82" height="86" fill="#FBCB2B" />
<rect x="418" y="139" width="13" height="332" fill="#FBCB2B" />
<rect x="436" y="139" width="4" height="9" fill="#020201" />
<rect x="444" y="139" width="4" height="9" fill="#F7F7F6" />
<rect x="333" y="144" width="85" height="67" fill="#FBCB2B" />
<rect x="45" y="148" width="9" height="27" fill="#020201" />
<rect x="80" y="148" width="157" height="9" fill="#F7F7F6" />
<rect x="238" y="148" width="4" height="9" fill="#020201" />
<rect x="242" y="148" width="9" height="95" fill="#FBCB2B" />
<rect x="431" y="148" width="4" height="323" fill="#FBCB2B" />
<rect x="440" y="148" width="8" height="314" fill="#020201" />
<rect x="40" y="157" width="5" height="143" fill="#020201" />
<rect x="67" y="157" width="9" height="9" fill="#020201" />
<rect x="80" y="157" width="158" height="9" fill="#020201" />
<rect x="238" y="157" width="4" height="86" fill="#FBCB2B" />
<rect x="31" y="166" width="9" height="135" fill="#020201" />
<rect x="54" y="166" width="184" height="86" fill="#FBCB2B" />
<rect x="45" y="175" width="4" height="121" fill="#020201" />
<rect x="49" y="175" width="5" height="126" fill="#FBCB2B" />
<rect x="333" y="211" width="8" height="14" fill="#FBCB2B" />
<rect x="341" y="211" width="32" height="14" fill="#BC0D08" />
<rect x="373" y="211" width="45" height="14" fill="#FBCB2B" />
<rect x="251" y="225" width="55" height="9" fill="#FBCB2B" />
<rect x="306" y="225" width="35" height="9" fill="#BC0D08" />
<rect x="341" y="225" width="32" height="67" fill="#FBCB2B" />
<rect x="373" y="225" width="9" height="36" fill="#BC0D08" />
<rect x="382" y="225" width="36" height="36" fill="#FBCB2B" />
<rect x="251" y="234" width="19" height="9" fill="#FBCB2B" />
<rect x="270" y="234" width="36" height="9" fill="#BC0D08" />
<rect x="306" y="234" width="35" height="18" fill="#FBCB2B" />
<rect x="238" y="243" width="32" height="9" fill="#BC0D08" />
<rect x="270" y="243" width="36" height="9" fill="#FBCB2B" />
<rect x="458" y="251" width="4" height="18" fill="#020201" />
<rect x="54" y="252" width="166" height="58" fill="#FBCB2B" />
<rect x="220" y="252" width="23" height="9" fill="#BC0D08" />
<rect x="243" y="252" width="54" height="36" fill="#FBCB2B" />
<rect x="297" y="252" width="13" height="138" fill="#BC0D08" />
<rect x="310" y="252" width="31" height="18" fill="#FBCB2B" />
<rect x="467" y="252" width="1" height="242" fill="#020201" />
<rect x="468" y="252" width="4" height="18" fill="#2B2621" />
<rect x="472" y="252" width="4" height="4" fill="#020201" />
<rect x="472" y="256" width="9" height="149" fill="#2B2621" />
<rect x="220" y="261" width="9" height="18" fill="#BC0D08" />
<rect x="229" y="261" width="14" height="9" fill="#FBCB2B" />
<rect x="373" y="261" width="9" height="144" fill="#FBCB2B" />
<rect x="382" y="261" width="9" height="49" fill="#BC0D08" />
<rect x="391" y="261" width="27" height="49" fill="#FBCB2B" />
<rect x="481" y="265" width="5" height="135" fill="#2B2621" />
<rect x="458" y="269" width="4" height="36" fill="#D48F06" />
<rect x="229" y="270" width="9" height="49" fill="#BC0D08" />
<rect x="238" y="270" width="5" height="49" fill="#FBCB2B" />
<rect x="310" y="270" width="9" height="103" fill="#BC0D08" />
<rect x="319" y="270" width="22" height="22" fill="#FBCB2B" />
<rect x="468" y="270" width="4" height="40" fill="#020201" />
<rect x="486" y="274" width="4" height="63" fill="#2B2621" />
<rect x="220" y="279" width="9" height="180" fill="#FBCB2B" />
<rect x="490" y="279" width="5" height="58" fill="#2B2621" />
<rect x="495" y="283" width="4" height="18" fill="#2B2621" />
<rect x="243" y="288" width="49" height="22" fill="#FBCB2B" />
<rect x="292" y="288" width="5" height="121" fill="#BC0D08" />
<rect x="319" y="292" width="9" height="72" fill="#BC0D08" />
<rect x="328" y="292" width="13" height="9" fill="#FBCB2B" />
<rect x="341" y="292" width="32" height="9" fill="#BC0D08" />
<rect x="499" y="292" width="9" height="36" fill="#2B2621" />
<rect x="40" y="300" width="9" height="1" fill="#FBCB2B" />
<rect x="31" y="301" width="1" height="9" fill="#020201" />
<rect x="32" y="301" width="18" height="77" fill="#2B2621" />
<rect x="50" y="301" width="4" height="9" fill="#FBCB2B" />
<rect x="328" y="301" width="40" height="9" fill="#BC0D08" />
<rect x="368" y="301" width="5" height="113" fill="#FBCB2B" />
<rect x="495" y="301" width="4" height="9" fill="#90908F" />
<rect x="508" y="301" width="4" height="45" fill="#2B2621" />
<rect x="458" y="305" width="4" height="36" fill="#020201" />
<rect x="23" y="310" width="9" height="18" fill="#2B2621" />
<rect x="50" y="310" width="9" height="27" fill="#2B2621" />
<rect x="59" y="310" width="161" height="9" fill="#FBCB2B" />
<rect x="243" y="310" width="36" height="9" fill="#FBCB2B" />
<rect x="279" y="310" width="13" height="36" fill="#BC0D08" />
<rect x="328" y="310" width="31" height="9" fill="#BC0D08" />
<rect x="359" y="310" width="9" height="63" fill="#FBCB2B" />
<rect x="382" y="310" width="9" height="95" fill="#FBCB2B" />
<rect x="391" y="310" width="4" height="36" fill="#BC0D08" />
<rect x="395" y="310" width="23" height="36" fill="#FBCB2B" />
<rect x="468" y="310" width="4" height="18" fill="#2B2621" />
<rect x="495" y="310" width="4" height="63" fill="#2B2621" />
<rect x="14" y="319" width="9" height="27" fill="#2B2621" />
<rect x="59" y="319" width="4" height="63" fill="#2B2621" />
<rect x="63" y="319" width="157" height="18" fill="#FBCB2B" />
<rect x="229" y="319" width="5" height="152" fill="#FBCB2B" />
<rect x="234" y="319" width="9" height="45" fill="#BC0D08" />
<rect x="243" y="319" width="4" height="45" fill="#FBCB2B" />
<rect x="247" y="319" width="32" height="9" fill="#BC0D08" />
<rect x="328" y="319" width="27" height="9" fill="#BC0D08" />
<rect x="355" y="319" width="4" height="36" fill="#FBCB2B" />
<rect x="9" y="328" width="5" height="54" fill="#2B2621" />
<rect x="23" y="328" width="4" height="9" fill="#817F80" />
<rect x="27" y="328" width="5" height="54" fill="#2B2621" />
<rect x="247" y="328" width="18" height="36" fill="#FBCB2B" />
<rect x="265" y="328" width="14" height="9" fill="#BC0D08" />
<rect x="328" y="328" width="18" height="45" fill="#BC0D08" />
<rect x="346" y="328" width="9" height="18" fill="#FBCB2B" />
<rect x="468" y="328" width="4" height="9" fill="#90908F" />
<rect x="499" y="328" width="5" height="9" fill="#817F80" />
<rect x="504" y="328" width="4" height="9" fill="#90908F" />
<rect x="23" y="337" width="4" height="45" fill="#2B2621" />
<rect x="50" y="337" width="9" height="9" fill="#817F80" />
<rect x="63" y="337" width="9" height="41" fill="#2B2621" />
<rect x="72" y="337" width="148" height="9" fill="#FBCB2B" />
<rect x="265" y="337" width="14" height="104" fill="#FBCB2B" />
<rect x="468" y="337" width="4" height="9" fill="#817F80" />
<rect x="486" y="337" width="9" height="5" fill="#817F80" />
<rect x="499" y="337" width="9" height="27" fill="#2B2621" />
<rect x="458" y="341" width="4" height="13" fill="#D48F06" />
<rect x="486" y="342" width="4" height="4" fill="#90908F" />
<rect x="490" y="342" width="5" height="4" fill="#817F80" />
<rect x="0" y="346" width="9" height="27" fill="#2B2621" />
<rect x="14" y="346" width="4" height="5" fill="#90908F" />
<rect x="18" y="346" width="5" height="18" fill="#817F80" />
<rect x="50" y="346" width="9" height="36" fill="#2B2621" />
<rect x="72" y="346" width="63" height="9" fill="#FBCB2B" />
<rect x="135" y="346" width="36" height="9" fill="#2B2621" />
<rect x="171" y="346" width="49" height="9" fill="#FBCB2B" />
<rect x="279" y="346" width="13" height="27" fill="#FBCB2B" />
<rect x="346" y="346" width="9" height="36" fill="#BC0D08" />
<rect x="391" y="346" width="4" height="59" fill="#FBCB2B" />
<rect x="395" y="346" width="9" height="36" fill="#BC0D08" />
<rect x="404" y="346" width="14" height="36" fill="#FBCB2B" />
<rect x="468" y="346" width="4" height="14" fill="#020201" />
<rect x="486" y="346" width="9" height="27" fill="#2B2621" />
<rect x="14" y="351" width="4" height="4" fill="#7F8180" />
<rect x="458" y="354" width="4" height="45" fill="#020201" />
<rect x="14" y="355" width="4" height="5" fill="#817F80" />
<rect x="72" y="355" width="54" height="9" fill="#FBCB2B" />
<rect x="126" y="355" width="23" height="9" fill="#2B2621" />
<rect x="149" y="355" width="9" height="14" fill="#817F80" />
<rect x="158" y="355" width="18" height="9" fill="#2B2621" />
<rect x="176" y="355" width="44" height="9" fill="#FBCB2B" />
<rect x="355" y="355" width="4" height="36" fill="#BC0D08" />
<rect x="14" y="360" width="4" height="4" fill="#90908F" />
<rect x="468" y="360" width="4" height="22" fill="#2B2621" />
<rect x="14" y="364" width="9" height="32" fill="#2B2621" />
<rect x="72" y="364" width="50" height="18" fill="#FBCB2B" />
<rect x="122" y="364" width="13" height="32" fill="#2B2621" />
<rect x="135" y="364" width="9" height="9" fill="#817F80" />
<rect x="144" y="364" width="5" height="32" fill="#2B2621" />
<rect x="158" y="364" width="4" height="14" fill="#817F80" />
<rect x="162" y="364" width="23" height="32" fill="#2B2621" />
<rect x="185" y="364" width="35" height="86" fill="#FBCB2B" />
<rect x="234" y="364" width="9" height="107" fill="#FBCB2B" />
<rect x="243" y="364" width="9" height="41" fill="#BC0D08" />
<rect x="252" y="364" width="13" height="36" fill="#FBCB2B" />
<rect x="319" y="364" width="9" height="59" fill="#FBCB2B" />
<rect x="149" y="369" width="4" height="63" fill="#2B2621" />
<rect x="153" y="369" width="5" height="4" fill="#817F80" />
<rect x="135" y="373" width="9" height="23" fill="#2B2621" />
<rect x="153" y="373" width="5" height="59" fill="#2B2621" />
<rect x="279" y="373" width="4" height="68" fill="#FBCB2B" />
<rect x="283" y="373" width="9" height="50" fill="#BC0D08" />
<rect x="310" y="373" width="4" height="17" fill="#BC0D08" />
<rect x="314" y="373" width="5" height="17" fill="#FBCB2B" />
<rect x="328" y="373" width="13" height="50" fill="#FBCB2B" />
<rect x="341" y="373" width="5" height="9" fill="#BC0D08" />
<rect x="359" y="373" width="9" height="18" fill="#BC0D08" />
<rect x="32" y="378" width="13" height="27" fill="#2B2621" />
<rect x="45" y="378" width="5" height="4" fill="#817F80" />
<rect x="63" y="378" width="9" height="54" fill="#FBCB2B" />
<rect x="158" y="378" width="4" height="36" fill="#2B2621" />
<rect x="31" y="382" width="1" height="99" fill="#020201" />
<rect x="45" y="382" width="5" height="117" fill="#2B2621" />
<rect x="50" y="382" width="13" height="18" fill="#FBCB2B" />
<rect x="72" y="382" width="14" height="14" fill="#FBCB2B" />
<rect x="86" y="382" width="4" height="23" fill="#2B2621" />
<rect x="90" y="382" width="9" height="9" fill="#817F80" />
<rect x="99" y="382" width="9" height="14" fill="#2B2621" />
<rect x="108" y="382" width="14" height="9" fill="#FBCB2B" />
<rect x="341" y="382" width="14" height="32" fill="#FBCB2B" />
<rect x="395" y="382" width="9" height="23" fill="#FBCB2B" />
<rect x="404" y="382" width="4" height="23" fill="#BC0D08" />
<rect x="408" y="382" width="10" height="89" fill="#FBCB2B" />
<rect x="468" y="382" width="4" height="18" fill="#817F80" />
<rect x="297" y="390" width="12" height="1" fill="#BC0D08" />
<rect x="309" y="390" width="9" height="4" fill="#F3B202" />
<rect x="318" y="390" width="1" height="42" fill="#FBCB2B" />
<rect x="90" y="391" width="5" height="14" fill="#2B2621" />
<rect x="95" y="391" width="4" height="9" fill="#90908F" />
<rect x="108" y="391" width="9" height="32" fill="#2B2621" />
<rect x="117" y="391" width="5" height="9" fill="#FBCB2B" />
<rect x="297" y="391" width="9" height="14" fill="#BC0D08" />
<rect x="306" y="391" width="3" height="41" fill="#FBCB2B" />
<rect x="355" y="391" width="13" height="23" fill="#FBCB2B" />
<rect x="309" y="394" width="9" height="38" fill="#FBCB2B" />
<rect x="72" y="396" width="5" height="9" fill="#FBCB2B" />
<rect x="77" y="396" width="9" height="9" fill="#2B2621" />
<rect x="99" y="396" width="5" height="9" fill="#817F80" />
<rect x="104" y="396" width="4" height="36" fill="#2B2621" />
<rect x="122" y="396" width="27" height="4" fill="#FBCB2B" />
<rect x="162" y="396" width="23" height="63" fill="#FBCB2B" />
<rect x="458" y="399" width="4" height="72" fill="#D48F06" />
<rect x="50" y="400" width="9" height="32" fill="#2B2621" />
<rect x="59" y="400" width="4" height="14" fill="#FBCB2B" />
<rect x="95" y="400" width="4" height="5" fill="#817F80" />
<rect x="117" y="400" width="5" height="23" fill="#2B2621" />
<rect x="122" y="400" width="22" height="14" fill="#FBCB2B" />
<rect x="144" y="400" width="5" height="86" fill="#2B2621" />
<rect x="252" y="400" width="4" height="41" fill="#BC0D08" />
<rect x="256" y="400" width="9" height="41" fill="#FBCB2B" />
<rect x="468" y="400" width="4" height="94" fill="#020201" />
<rect x="32" y="405" width="4" height="76" fill="#020201" />
<rect x="36" y="405" width="9" height="81" fill="#2B2621" />
<rect x="72" y="405" width="5" height="18" fill="#2B2621" />
<rect x="77" y="405" width="4" height="4" fill="#FBCB2B" />
<rect x="81" y="405" width="5" height="9" fill="#90908F" />
<rect x="86" y="405" width="4" height="4" fill="#817F80" />
<rect x="90" y="405" width="5" height="9" fill="#FBCB2B" />
<rect x="95" y="405" width="9" height="27" fill="#2B2621" />
<rect x="243" y="405" width="4" height="66" fill="#FBCB2B" />
<rect x="247" y="405" width="5" height="36" fill="#BC0D08" />
<rect x="297" y="405" width="9" height="27" fill="#FBCB2B" />
<rect x="373" y="405" width="31" height="9" fill="#BC0D08" />
<rect x="404" y="405" width="4" height="66" fill="#FBCB2B" />
<rect x="472" y="405" width="8" height="76" fill="#020201" />
<rect x="77" y="409" width="4" height="14" fill="#2B2621" />
<rect x="86" y="409" width="4" height="5" fill="#90908F" />
<rect x="292" y="409" width="5" height="23" fill="#FBCB2B" />
<rect x="59" y="414" width="4" height="36" fill="#2B2621" />
<rect x="81" y="414" width="14" height="9" fill="#2B2621" />
<rect x="122" y="414" width="13" height="9" fill="#FBCB2B" />
<rect x="135" y="414" width="9" height="27" fill="#2B2621" />
<rect x="158" y="414" width="4" height="36" fill="#FBCB2B" />
<rect x="341" y="414" width="5" height="9" fill="#FBCB2B" />
<rect x="346" y="414" width="27" height="9" fill="#BC0D08" />
<rect x="373" y="414" width="31" height="57" fill="#FBCB2B" />
<rect x="72" y="423" width="14" height="18" fill="#FBCB2B" />
<rect x="86" y="423" width="9" height="89" fill="#2B2621" />
<rect x="108" y="423" width="23" height="9" fill="#FBCB2B" />
<rect x="131" y="423" width="4" height="27" fill="#2B2621" />
<rect x="283" y="423" width="9" height="9" fill="#FBCB2B" />
<rect x="319" y="423" width="27" height="9" fill="#BC0D08" />
<rect x="346" y="423" width="27" height="48" fill="#FBCB2B" />
<rect x="50" y="432" width="9" height="9" fill="#817F80" />
<rect x="63" y="432" width="9" height="18" fill="#2B2621" />
<rect x="95" y="432" width="4" height="18" fill="#2B2621" />
<rect x="99" y="432" width="14" height="9" fill="#FBCB2B" />
<rect x="113" y="432" width="18" height="27" fill="#2B2621" />
<rect x="149" y="432" width="9" height="9" fill="#FBCB2B" />
<rect x="283" y="432" width="36" height="9" fill="#BC0D08" />
<rect x="319" y="432" width="27" height="39" fill="#FBCB2B" />
<rect x="50" y="441" width="9" height="67" fill="#2B2621" />
<rect x="72" y="441" width="9" height="36" fill="#2B2621" />
<rect x="81" y="441" width="5" height="9" fill="#FBCB2B" />
<rect x="99" y="441" width="9" height="9" fill="#FBCB2B" />
<rect x="108" y="441" width="5" height="71" fill="#2B2621" />
<rect x="135" y="441" width="9" height="9" fill="#817F80" />
<rect x="149" y="441" width="9" height="36" fill="#2B2621" />
<rect x="247" y="441" width="9" height="30" fill="#FBCB2B" />
<rect x="256" y="441" width="27" height="8" fill="#BC0D08" />
<rect x="283" y="441" width="36" height="30" fill="#FBCB2B" />
<rect x="448" y="448" width="1" height="14" fill="#020201" />
<rect x="256" y="449" width="27" height="22" fill="#FBCB2B" />
<rect x="59" y="450" width="4" height="9" fill="#90908F" />
<rect x="63" y="450" width="5" height="9" fill="#817F80" />
<rect x="68" y="450" width="4" height="22" fill="#2B2621" />
<rect x="81" y="450" width="5" height="62" fill="#2B2621" />
<rect x="95" y="450" width="4" height="9" fill="#FBCB2B" />
<rect x="99" y="450" width="9" height="62" fill="#2B2621" />
<rect x="131" y="450" width="4" height="18" fill="#FBCB2B" />
<rect x="135" y="450" width="9" height="18" fill="#2B2621" />
<rect x="158" y="450" width="4" height="18" fill="#2B2621" />
<rect x="185" y="450" width="27" height="4" fill="#2B2621" />
<rect x="212" y="450" width="8" height="9" fill="#FBCB2B" />
<rect x="454" y="453" width="4" height="27" fill="#D48F06" />
<rect x="185" y="454" width="9" height="9" fill="#2B2621" />
<rect x="194" y="454" width="4" height="5" fill="#817F80" />
<rect x="198" y="454" width="14" height="27" fill="#2B2621" />
<rect x="449" y="454" width="5" height="8" fill="#020201" />
<rect x="59" y="459" width="4" height="4" fill="#817F80" />
<rect x="63" y="459" width="5" height="9" fill="#2B2621" />
<rect x="95" y="459" width="4" height="9" fill="#2B2621" />
<rect x="113" y="459" width="9" height="9" fill="#2B2621" />
<rect x="122" y="459" width="9" height="12" fill="#FBCB2B" />
<rect x="162" y="459" width="18" height="4" fill="#FBCB2B" />
<rect x="180" y="459" width="5" height="18" fill="#2B2621" />
<rect x="194" y="459" width="4" height="9" fill="#90908F" />
<rect x="212" y="459" width="9" height="18" fill="#2B2621" />
<rect x="221" y="459" width="8" height="12" fill="#FBCB2B" />
<rect x="440" y="462" width="5" height="13" fill="#020201" />
<rect x="445" y="462" width="9" height="18" fill="#D48F06" />
<rect x="59" y="463" width="4" height="49" fill="#2B2621" />
<rect x="162" y="463" width="14" height="8" fill="#FBCB2B" />
<rect x="176" y="463" width="4" height="14" fill="#2B2621" />
<rect x="185" y="463" width="4" height="14" fill="#2B2621" />
<rect x="189" y="463" width="5" height="9" fill="#817F80" />
<rect x="63" y="468" width="4" height="7" fill="#D48F06" />
<rect x="67" y="468" width="1" height="3" fill="#FBCB2B" />
<rect x="95" y="468" width="4" height="9" fill="#817F80" />
<rect x="113" y="468" width="9" height="3" fill="#FBCB2B" />
<rect x="131" y="468" width="4" height="44" fill="#2B2621" />
<rect x="135" y="468" width="9" height="3" fill="#FBCB2B" />
<rect x="158" y="468" width="4" height="3" fill="#FBCB2B" />
<rect x="194" y="468" width="4" height="4" fill="#817F80" />
<rect x="67" y="471" width="1" height="9" fill="#D48F06" />
<rect x="113" y="471" width="4" height="17" fill="#D48F06" />
<rect x="117" y="471" width="4" height="17" fill="#FBCB2B" />
<rect x="139" y="471" width="5" height="6" fill="#FBCB2B" />
<rect x="158" y="471" width="18" height="6" fill="#D48F06" />
<rect x="221" y="471" width="219" height="17" fill="#D48F06" />
<rect x="68" y="472" width="4" height="8" fill="#D48F06" />
<rect x="189" y="472" width="9" height="23" fill="#2B2621" />
<rect x="463" y="472" width="4" height="31" fill="#020201" />
<rect x="63" y="475" width="4" height="6" fill="#FBCB2B" />
<rect x="135" y="475" width="4" height="2" fill="#FBCB2B" />
<rect x="440" y="475" width="5" height="13" fill="#D48F06" />
<rect x="76" y="477" width="1" height="9" fill="#FBCB2B" />
<rect x="77" y="477" width="4" height="35" fill="#2B2621" />
<rect x="95" y="477" width="4" height="35" fill="#2B2621" />
<rect x="122" y="477" width="9" height="35" fill="#2B2621" />
<rect x="135" y="477" width="9" height="4" fill="#90908F" />
<rect x="149" y="477" width="4" height="3" fill="#D48F06" />
<rect x="153" y="477" width="4" height="9" fill="#FBCB2B" />
<rect x="157" y="477" width="1" height="3" fill="#D48F06" />
<rect x="158" y="477" width="4" height="35" fill="#2B2621" />
<rect x="162" y="477" width="22" height="3" fill="#D48F06" />
<rect x="184" y="477" width="5" height="11" fill="#FBCB2B" />
<rect x="212" y="477" width="9" height="11" fill="#D48F06" />
<rect x="67" y="480" width="9" height="1" fill="#FBCB2B" />
<rect x="149" y="480" width="4" height="6" fill="#FBCB2B" />
<rect x="157" y="480" width="1" height="6" fill="#FBCB2B" />
<rect x="162" y="480" width="9" height="6" fill="#FBCB2B" />
<rect x="171" y="480" width="13" height="6" fill="#D48F06" />
<rect x="445" y="480" width="4" height="8" fill="#D48F06" />
<rect x="63" y="481" width="9" height="31" fill="#2B2621" />
<rect x="72" y="481" width="4" height="5" fill="#FBCB2B" />
<rect x="135" y="481" width="9" height="31" fill="#2B2621" />
<rect x="198" y="481" width="5" height="31" fill="#2B2621" />
<rect x="203" y="481" width="4" height="5" fill="#FBCB2B" />
<rect x="207" y="481" width="5" height="5" fill="#D48F06" />
<rect x="454" y="481" width="9" height="26" fill="#020201" />
<rect x="472" y="481" width="4" height="13" fill="#020201" />
<rect x="121" y="484" width="1" height="4" fill="#FBCB2B" />
<rect x="40" y="486" width="1" height="8" fill="#020201" />
<rect x="41" y="486" width="4" height="13" fill="#2B2621" />
<rect x="72" y="486" width="5" height="26" fill="#2B2621" />
<rect x="144" y="486" width="5" height="2" fill="#FBCB2B" />
<rect x="149" y="486" width="9" height="26" fill="#2B2621" />
<rect x="162" y="486" width="14" height="26" fill="#2B2621" />
<rect x="176" y="486" width="8" height="2" fill="#D48F06" />
<rect x="203" y="486" width="9" height="26" fill="#2B2621" />
<rect x="113" y="494" width="9" height="5" fill="#020201" />
<rect x="144" y="494" width="5" height="5" fill="#020201" />
<rect x="176" y="494" width="13" height="5" fill="#020201" />
<rect x="212" y="494" width="242" height="5" fill="#020201" />
<rect x="189" y="495" width="5" height="4" fill="#020201" />
<rect x="194" y="495" width="4" height="17" fill="#2B2621" />
<rect x="49" y="499" width="1" height="4" fill="#020201" />
<rect x="113" y="499" width="9" height="13" fill="#2B2621" />
<rect x="144" y="499" width="5" height="13" fill="#2B2621" />
<rect x="176" y="499" width="18" height="13" fill="#2B2621" />
<rect x="212" y="499" width="4" height="13" fill="#2B2621" />
<rect x="216" y="499" width="238" height="8" fill="#020201" />
<rect x="54" y="508" width="5" height="4" fill="#2B2621" />
</svg>